<?xml version="1.0" encoding="UTF-8" standalone="no"?>
<svg
   width="20.897mm"
   height="7.4475mm"
   version="1.1"
   viewBox="0 0 20.897 7.4475"
   id="svg66"
   sodipodi:docname="cacheworks.svg"
   inkscape:version="1.1 (1:1.1+202105261517+ce6663b3b7)"
   xmlns:inkscape="http://www.inkscape.org/namespaces/inkscape"
   xmlns:sodipodi="http://sodipodi.sourceforge.net/DTD/sodipodi-0.dtd"
   xmlns="http://www.w3.org/2000/svg"
   xmlns:svg="http://www.w3.org/2000/svg">
  <defs
     id="defs70" />
  <sodipodi:namedview
     id="namedview68"
     pagecolor="#ffffff"
     bordercolor="#cccccc"
     borderopacity="1"
     inkscape:pageshadow="0"
     inkscape:pageopacity="1"
     inkscape:pagecheckerboard="0"
     inkscape:document-units="mm"
     showgrid="false"
     inkscape:zoom="16.307764"
     inkscape:cx="39.521053"
     inkscape:cy="14.073051"
     inkscape:window-width="1727"
     inkscape:window-height="1402"
     inkscape:window-x="1711"
     inkscape:window-y="145"
     inkscape:window-maximized="1"
     inkscape:current-layer="text56" />
  <g
     transform="translate(-52.931 -22.817)"
     id="g64">
    <g
       transform="matrix(-.41666 -.39327 -.41666 .39327 133.44 123.56)"
       id="g26">
      <g
         transform="translate(194.37 -49.525)"
         id="g4">
        <path
           d="m0 0-2.276 2.276-1e-3 -1e-3z"
           fill="#3f4040"
           id="path2" />
      </g>
      <g
         transform="translate(195.12 -42.459)"
         id="g8">
        <path
           d="m0 0-3.91-3.907 0.883-0.883 3.031 3.028v1.759"
           fill="#baddb0"
           id="path6" />
      </g>
      <g
         transform="translate(194.37 -49.525)"
         fill="#e6e6e6"
         id="g12">
        <path
           d="m0 0-2.277 2.275 1e-3 1e-3 -0.883 0.883-0.885-0.884 4.795-4.792 4e-3 4e-3v1.758z"
           fill="#e6e6e6"
           id="path10" />
      </g>
      <g
         transform="matrix(-1 0 0 1 197.88 -42.462)"
         fill="#e6e6e6"
         id="g16">
        <path
           d="m0 0v-1.759l3.029-3.03 0.883-0.886 0.884 0.886-4.791 4.793"
           fill="#e6e6e6"
           id="path14" />
      </g>
      <g
         transform="matrix(-1 0 0 1 194.86 -47.251)"
         id="g20">
        <path
           d="m0 0-3.029-3.028v-1.759l5e-3 -4e-3 3.907 3.905z"
           fill="#9ad6db"
           id="path18" />
      </g>
      <path
         id="rect22"
         transform="scale(-1)"
         style="fill:#baddb0;stroke-width:2.1737"
         d="M -197.88,50.278999 H -195.1254 V 52.040499 H -197.88 Z" />
      <path
         id="rect24"
         transform="scale(1,-1)"
         style="fill:#9ad6db;stroke-width:2.1762"
         d="M 195.12,42.459 H 197.8863 V 44.217 H 195.12 Z" />
    </g>
    <g
       transform="matrix(.41666 .39327 .41666 -.39327 7.9159 -69.245)"
       id="g52">
      <g
         transform="translate(194.37 -49.525)"
         id="g30">
        <path
           d="m0 0-2.276 2.276-1e-3 -1e-3z"
           fill="#3f4040"
           id="path28" />
      </g>
      <g
         transform="translate(195.12 -42.459)"
         id="g34">
        <path
           d="m0 0-3.91-3.907 0.883-0.883 3.031 3.028v1.759"
           fill="#baddb0"
           id="path32" />
      </g>
      <g
         transform="translate(194.37 -49.525)"
         fill="#e6e6e6"
         id="g38">
        <path
           d="m0 0-2.277 2.275 1e-3 1e-3 -0.883 0.883-0.885-0.884 4.795-4.792 4e-3 4e-3v1.758z"
           fill="#e6e6e6"
           id="path36" />
      </g>
      <g
         transform="matrix(-1 0 0 1 197.88 -42.462)"
         id="g42">
        <path
           d="m0 0v-1.759l3.029-3.03 0.883-0.886 0.884 0.886-4.791 4.793"
           fill="#e6e6e6"
           id="path40" />
      </g>
      <g
         transform="matrix(-1 0 0 1 194.86 -47.251)"
         id="g46">
        <path
           d="m0 0-3.029-3.028v-1.759l5e-3 -4e-3 3.907 3.905z"
           fill="#9ad6db"
           id="path44" />
      </g>
      <path
         id="rect48"
         transform="scale(-1)"
         style="fill:#baddb0;stroke-width:2.1737"
         d="M -197.88,50.278999 H -195.1254 V 52.040499 H -197.88 Z" />
      <path
         id="rect50"
         transform="scale(1,-1)"
         style="fill:#9ad6db;stroke-width:2.1762"
         d="M 195.12,42.459 H 197.8863 V 44.217 H 195.12 Z" />
    </g>
    <g
       transform="matrix(.35278 0 0 -.35278 -123.35 34.088)"
       fill="#e6e6e6"
       font-family="Futura-Normal"
       font-size="15.9px"
       stroke-width="2.4375"
       id="g62">
      <g
         aria-label="cache"
         transform="scale(1.0293 -.97153)"
         id="text56">
        <path
           d="M 491.01982,-27.416633 V -25.922033 Q 490.79722,-26.176433 490.59052,-26.351333 490.38382,-26.542133 490.17712,-26.669333 489.89092,-26.860133 489.58882,-26.939633 489.28672,-27.019133 488.93692,-27.019133 487.98292,-27.019133 487.29922,-26.335433 486.61552,-25.651733 486.61552,-24.681834 486.61552,-23.568834 487.25152,-22.853334 487.88752,-22.137834 488.88922,-22.137834 489.30262,-22.137834 489.63652,-22.233234 489.97042,-22.328634 490.28842,-22.535334 490.46332,-22.678434 490.65412,-22.853334 490.86082,-23.044134 491.06752,-23.282634 V -21.788034 Q 490.78132,-21.597234 490.52692,-21.470034 490.28842,-21.342834 490.04992,-21.279234 489.77962,-21.199734 489.49342,-21.167934 489.22312,-21.120234 488.88922,-21.120234 487.41052,-21.120234 486.42472,-22.121934 485.45482,-23.139534 485.45482,-24.681834 485.45482,-26.065133 486.48832,-27.050933 487.53772,-28.052633 488.98462,-28.052633 489.35032,-28.052633 489.66832,-27.989033 490.00222,-27.925433 490.32022,-27.798233 490.49512,-27.718733 490.67002,-27.623333 490.84492,-27.527933 491.01982,-27.416633 Z"
           id="path891" />
        <path
           d="M 497.82501,-27.893633 H 498.96981 V -21.295134 H 497.82501 V -22.217334 Q 497.34801,-21.629034 496.79151,-21.374634 496.25091,-21.120234 495.53541,-21.120234 494.15211,-21.120234 493.26171,-22.121934 492.37131,-23.123634 492.37131,-24.681834 492.37131,-26.144633 493.27761,-27.098633 494.18391,-28.052633 495.55131,-28.052633 496.25091,-28.052633 496.79151,-27.782333 497.33211,-27.527933 497.82501,-26.955533 V -27.893633 Z M 493.53201,-24.650034 Q 493.53201,-23.552934 494.13621,-22.837434 494.74041,-22.137834 495.69441,-22.137834 496.68021,-22.137834 497.28441,-22.837434 497.90451,-23.537034 497.90451,-24.650034 497.90451,-25.699433 497.28441,-26.367233 496.66431,-27.035033 495.67851,-27.035033 494.77221,-27.035033 494.15211,-26.335433 493.53201,-25.651733 493.53201,-24.650034 Z"
           id="path893" />
        <path
           d="M 506.26788,-27.416633 V -25.922033 Q 506.04528,-26.176433 505.83858,-26.351333 505.63188,-26.542133 505.42518,-26.669333 505.13898,-26.860133 504.83688,-26.939633 504.53478,-27.019133 504.18498,-27.019133 503.23098,-27.019133 502.54728,-26.335433 501.86358,-25.651733 501.86358,-24.681834 501.86358,-23.568834 502.49958,-22.853334 503.13558,-22.137834 504.13728,-22.137834 504.55068,-22.137834 504.88458,-22.233234 505.21848,-22.328634 505.53648,-22.535334 505.71138,-22.678434 505.90218,-22.853334 506.10888,-23.044134 506.31558,-23.282634 V -21.788034 Q 506.02938,-21.597234 505.77498,-21.470034 505.53648,-21.342834 505.29798,-21.279234 505.02768,-21.199734 504.74148,-21.167934 504.47118,-21.120234 504.13728,-21.120234 502.65858,-21.120234 501.67278,-22.121934 500.70288,-23.139534 500.70288,-24.681834 500.70288,-26.065133 501.73638,-27.050933 502.78578,-28.052633 504.23268,-28.052633 504.59838,-28.052633 504.91638,-27.989033 505.25028,-27.925433 505.56828,-27.798233 505.74318,-27.718733 505.91808,-27.623333 506.09298,-27.527933 506.26788,-27.416633 Z"
           id="path895" />
        <path
           d="M 508.04867,-32.886233 H 509.17757 V -27.130433 Q 509.24117,-27.209933 509.28887,-27.273533 509.35247,-27.337133 509.41607,-27.384833 509.78177,-27.750533 510.16337,-27.893633 510.56087,-28.052633 511.08557,-28.052633 512.37347,-28.052633 512.85047,-27.273533 513.34337,-26.510333 513.34337,-25.381433 V -21.295134 H 512.21447 V -25.301933 Q 512.21447,-26.192333 511.89647,-26.605733 511.59437,-27.019133 510.91067,-27.019133 509.98847,-27.019133 509.57507,-26.462633 509.17757,-25.906133 509.17757,-24.586434 V -21.295134 H 508.04867 V -32.886233 Z"
           id="path897" />
        <path
           d="M 521.42057,-24.363834 H 516.26897 Q 516.31667,-23.378034 516.88907,-22.757934 517.46147,-22.137834 518.32007,-22.137834 518.82887,-22.137834 519.19457,-22.296834 519.57617,-22.455834 519.92597,-22.837434 520.03727,-22.980534 520.14857,-23.139534 520.27577,-23.298534 520.40297,-23.505234 L 521.35697,-22.980534 Q 520.86407,-22.121934 520.08497,-21.613134 519.32177,-21.120234 518.30417,-21.120234 516.87317,-21.120234 515.96687,-22.090134 515.07647,-23.060034 515.07647,-24.602334 515.07647,-26.112833 515.96687,-27.082733 516.87317,-28.052633 518.28827,-28.052633 519.91007,-28.052633 520.65737,-26.939633 521.42057,-25.826633 521.42057,-24.363834 Z M 520.22807,-25.317833 Q 520.06907,-26.096933 519.54437,-26.558033 519.01967,-27.019133 518.28827,-27.019133 517.57277,-27.019133 517.01627,-26.542133 516.47567,-26.065133 516.34847,-25.317833 H 520.22807 Z"
           id="path899" />
      </g>
      <g
         aria-label="works"
         transform="scale(1.0293 -.97153)"
         id="text60">
        <path
           d="M 488.71567,-18.216084 490.67137,-13.748184 492.73837,-18.724884 494.78947,-13.748184 496.76107,-18.216084 H 498.03307 L 494.75767,-11.156484 492.72247,-16.085484 490.68727,-11.156484 487.44367,-18.216084 H 488.71567 Z"
           id="path902" />
        <path
           d="M 498.81215,-14.892984 Q 498.81215,-16.355784 499.82975,-17.357484 500.84735,-18.375084 502.29425,-18.375084 503.75705,-18.375084 504.77465,-17.357484 505.79225,-16.355784 505.79225,-14.892984 505.79225,-13.446084 504.77465,-12.444384 503.75705,-11.442684 502.29425,-11.442684 500.84735,-11.442684 499.82975,-12.444384 498.81215,-13.446084 498.81215,-14.892984 Z M 499.97285,-14.892984 Q 499.97285,-13.843584 500.62475,-13.143984 501.27665,-12.460284 502.27835,-12.460284 503.31185,-12.460284 503.96375,-13.143984 504.63155,-13.827684 504.63155,-14.892984 504.63155,-15.974184 503.96375,-16.657884 503.31185,-17.341584 502.27835,-17.341584 501.27665,-17.341584 500.62475,-16.641984 499.97285,-15.958284 499.97285,-14.892984 Z"
           id="path904" />
        <path
           d="M 507.52535,-18.216084 H 508.65425 V -17.500584 Q 508.86095,-17.739084 509.00405,-17.898084 509.16305,-18.057084 509.32205,-18.168384 509.51285,-18.295584 509.71955,-18.327384 509.92625,-18.375084 510.21245,-18.375084 510.30785,-18.375084 510.38735,-18.359184 510.48275,-18.359184 510.56225,-18.343284 510.68945,-18.327384 510.83255,-18.263784 510.97565,-18.216084 511.16645,-18.104784 L 510.62585,-17.071284 Q 510.51455,-17.150784 510.41915,-17.198484 510.32375,-17.246184 510.24425,-17.262084 510.18065,-17.277984 510.10115,-17.277984 510.03755,-17.293884 509.95805,-17.293884 509.27435,-17.293884 508.95635,-16.769184 508.65425,-16.260384 508.65425,-15.099684 V -11.617584 H 507.52535 V -18.216084 Z"
           id="path906" />
        <path
           d="M 513.34472,-23.208684 V -15.783384 L 515.74562,-18.216084 H 517.25612 L 514.42592,-15.417684 517.78082,-11.617584 H 516.30212 L 513.63092,-14.622684 513.34472,-14.336484 V -11.617584 H 512.21582 V -23.208684 H 513.34472 Z"
           id="path908" />
        <path
           d="M 522.55082,-17.182584 521.61272,-16.689684 Q 521.43782,-17.023584 521.21522,-17.182584 520.99262,-17.341584 520.70642,-17.341584 520.37252,-17.341584 520.13402,-17.134884 519.89552,-16.928184 519.89552,-16.626084 519.89552,-16.276284 520.18172,-16.069584 520.46792,-15.862884 520.88132,-15.687984 521.00852,-15.640284 521.13572,-15.576684 521.27882,-15.528984 521.42192,-15.465384 521.99432,-15.210984 522.47132,-14.797584 522.94832,-14.384184 522.94832,-13.573284 522.94832,-12.666984 522.29642,-12.046884 521.66042,-11.442684 520.72232,-11.442684 519.87962,-11.442684 519.29132,-11.856084 518.70302,-12.269484 518.38502,-13.112184 L 519.38672,-13.525584 Q 519.43442,-13.430184 519.48212,-13.334784 519.52982,-13.255284 519.56162,-13.175784 519.80012,-12.762384 520.05452,-12.603384 520.32482,-12.460284 520.73822,-12.460284 521.19932,-12.460284 521.50142,-12.762384 521.80352,-13.064484 521.80352,-13.541484 521.80352,-13.970784 521.45372,-14.209284 521.11982,-14.447784 520.65872,-14.654484 520.56332,-14.686284 520.46792,-14.718084 520.38842,-14.765784 520.30892,-14.797584 519.75242,-15.051984 519.27542,-15.417684 518.81432,-15.799284 518.81432,-16.530684 518.81432,-17.325684 519.37082,-17.850384 519.94322,-18.375084 520.78592,-18.375084 521.35832,-18.375084 521.80352,-18.072984 522.24872,-17.786784 522.55082,-17.182584 Z"
           id="path910" />
      </g>
    </g>
  </g>
</svg>
