<?xml version="1.0" encoding="UTF-8"?>
<svg width="20.897mm" height="7.4475mm" version="1.1" viewBox="0 0 20.897 7.4475" xmlns="http://www.w3.org/2000/svg">
  <g transform="translate(-52.931 -22.817)">
    <g transform="matrix(-.41666 -.39327 -.41666 .39327 133.44 123.56)">
      <g transform="translate(194.37 -49.525)">
        <path d="m0 0-2.276 2.276-1e-3 -1e-3z" fill="#3f4040"/>
      </g>
      <g transform="translate(195.12 -42.459)">
        <path d="m0 0-3.91-3.907 0.883-0.883 3.031 3.028v1.759" fill="#baddb0"/>
      </g>
      <g transform="translate(194.37 -49.525)" fill="#e6e6e6">
        <path d="m0 0-2.277 2.275 1e-3 1e-3 -0.883 0.883-0.885-0.884 4.795-4.792 4e-3 4e-3v1.758z" fill="#e6e6e6"/>
      </g>
      <g transform="matrix(-1 0 0 1 197.88 -42.462)" fill="#e6e6e6">
        <path d="m0 0v-1.759l3.029-3.03 0.883-0.886 0.884 0.886-4.791 4.793" fill="#e6e6e6"/>
      </g>
      <g transform="matrix(-1 0 0 1 194.86 -47.251)">
        <path d="m0 0-3.029-3.028v-1.759l5e-3 -4e-3 3.907 3.905z" fill="#9ad6db"/>
      </g>
      <path transform="scale(-1)" d="m-197.88 50.279h2.7546v1.7615h-2.7546z" fill="#baddb0" stroke-width="2.1737"/>
      <path transform="scale(1,-1)" d="m195.12 42.459h2.7663v1.758h-2.7663z" fill="#9ad6db" stroke-width="2.1762"/>
    </g>
    <g transform="matrix(.41666 .39327 .41666 -.39327 7.9159 -69.245)">
      <g transform="translate(194.37 -49.525)">
        <path d="m0 0-2.276 2.276-1e-3 -1e-3z" fill="#3f4040"/>
      </g>
      <g transform="translate(195.12 -42.459)">
        <path d="m0 0-3.91-3.907 0.883-0.883 3.031 3.028v1.759" fill="#baddb0"/>
      </g>
      <g transform="translate(194.37 -49.525)" fill="#e6e6e6">
        <path d="m0 0-2.277 2.275 1e-3 1e-3 -0.883 0.883-0.885-0.884 4.795-4.792 4e-3 4e-3v1.758z" fill="#e6e6e6"/>
      </g>
      <g transform="matrix(-1 0 0 1 197.88 -42.462)">
        <path d="m0 0v-1.759l3.029-3.03 0.883-0.886 0.884 0.886-4.791 4.793" fill="#e6e6e6"/>
      </g>
      <g transform="matrix(-1 0 0 1 194.86 -47.251)">
        <path d="m0 0-3.029-3.028v-1.759l5e-3 -4e-3 3.907 3.905z" fill="#9ad6db"/>
      </g>
      <path transform="scale(-1)" d="m-197.88 50.279h2.7546v1.7615h-2.7546z" fill="#baddb0" stroke-width="2.1737"/>
      <path transform="scale(1,-1)" d="m195.12 42.459h2.7663v1.758h-2.7663z" fill="#9ad6db" stroke-width="2.1762"/>
    </g>
    <g transform="matrix(.35278 0 0 -.35278 -123.35 34.088)" fill="#e6e6e6" font-family="Futura-Normal" font-size="15.9px" stroke-width="2.4375">
      <g transform="scale(1.0293 -.97153)" aria-label="cache">
        <path d="m491.02-27.417v1.4946q-0.2226-0.2544-0.4293-0.4293-0.2067-0.1908-0.4134-0.318-0.2862-0.1908-0.5883-0.2703t-0.6519-0.0795q-0.954 0-1.6377 0.6837t-0.6837 1.6536q0 1.113 0.636 1.8285t1.6377 0.7155q0.4134 0 0.7473-0.0954t0.6519-0.3021q0.1749-0.1431 0.3657-0.318 0.2067-0.1908 0.4134-0.4293v1.4946q-0.2862 0.1908-0.5406 0.318-0.2385 0.1272-0.477 0.1908-0.2703 0.0795-0.5565 0.1113-0.2703 0.0477-0.6042 0.0477-1.4787 0-2.4645-1.0017-0.9699-1.0176-0.9699-2.5599 0-1.3833 1.0335-2.3691 1.0494-1.0017 2.4963-1.0017 0.3657 0 0.6837 0.0636 0.3339 0.0636 0.6519 0.1908 0.1749 0.0795 0.3498 0.1749t0.3498 0.2067z"/>
        <path d="m497.83-27.894h1.1448v6.5985h-1.1448v-0.9222q-0.477 0.5883-1.0335 0.8427-0.5406 0.2544-1.2561 0.2544-1.3833 0-2.2737-1.0017t-0.8904-2.5599q0-1.4628 0.9063-2.4168t2.2737-0.954q0.6996 0 1.2402 0.2703 0.5406 0.2544 1.0335 0.8268v-0.9381zm-4.293 3.2436q0 1.0971 0.6042 1.8126 0.6042 0.6996 1.5582 0.6996 0.9858 0 1.59-0.6996 0.6201-0.6996 0.6201-1.8126 0-1.0494-0.6201-1.7172t-1.6059-0.6678q-0.9063 0-1.5264 0.6996-0.6201 0.6837-0.6201 1.6854z"/>
        <path d="m506.27-27.417v1.4946q-0.2226-0.2544-0.4293-0.4293-0.2067-0.1908-0.4134-0.318-0.2862-0.1908-0.5883-0.2703t-0.6519-0.0795q-0.954 0-1.6377 0.6837t-0.6837 1.6536q0 1.113 0.636 1.8285t1.6377 0.7155q0.4134 0 0.7473-0.0954t0.6519-0.3021q0.1749-0.1431 0.3657-0.318 0.2067-0.1908 0.4134-0.4293v1.4946q-0.2862 0.1908-0.5406 0.318-0.2385 0.1272-0.477 0.1908-0.2703 0.0795-0.5565 0.1113-0.2703 0.0477-0.6042 0.0477-1.4787 0-2.4645-1.0017-0.9699-1.0176-0.9699-2.5599 0-1.3833 1.0335-2.3691 1.0494-1.0017 2.4963-1.0017 0.3657 0 0.6837 0.0636 0.3339 0.0636 0.6519 0.1908 0.1749 0.0795 0.3498 0.1749t0.3498 0.2067z"/>
        <path d="m508.05-32.886h1.1289v5.7558q0.0636-0.0795 0.1113-0.1431 0.0636-0.0636 0.1272-0.1113 0.3657-0.3657 0.7473-0.5088 0.3975-0.159 0.9222-0.159 1.2879 0 1.7649 0.7791 0.4929 0.7632 0.4929 1.8921v4.0863h-1.1289v-4.0068q0-0.8904-0.318-1.3038-0.3021-0.4134-0.9858-0.4134-0.9222 0-1.3356 0.5565-0.3975 0.5565-0.3975 1.8762v3.2913h-1.1289v-11.591z"/>
        <path d="m521.42-24.364h-5.1516q0.0477 0.9858 0.6201 1.6059t1.431 0.6201q0.5088 0 0.8745-0.159 0.3816-0.159 0.7314-0.5406 0.1113-0.1431 0.2226-0.3021 0.1272-0.159 0.2544-0.3657l0.954 0.5247q-0.4929 0.8586-1.272 1.3674-0.7632 0.4929-1.7808 0.4929-1.431 0-2.3373-0.9699-0.8904-0.9699-0.8904-2.5122 0-1.5105 0.8904-2.4804 0.9063-0.9699 2.3214-0.9699 1.6218 0 2.3691 1.113 0.7632 1.113 0.7632 2.5758zm-1.1925-0.954q-0.159-0.7791-0.6837-1.2402t-1.2561-0.4611q-0.7155 0-1.272 0.477-0.5406 0.477-0.6678 1.2243h3.8796z"/>
      </g>
      <g transform="scale(1.0293 -.97153)" aria-label="works">
        <path d="m488.72-18.216 1.9557 4.4679 2.067-4.9767 2.0511 4.9767 1.9716-4.4679h1.272l-3.2754 7.0596-2.0352-4.929-2.0352 4.929-3.2436-7.0596h1.272z"/>
        <path d="m498.81-14.893q0-1.4628 1.0176-2.4645 1.0176-1.0176 2.4645-1.0176 1.4628 0 2.4804 1.0176 1.0176 1.0017 1.0176 2.4645 0 1.4469-1.0176 2.4486t-2.4804 1.0017q-1.4469 0-2.4645-1.0017t-1.0176-2.4486zm1.1607 0q0 1.0494 0.6519 1.749 0.6519 0.6837 1.6536 0.6837 1.0335 0 1.6854-0.6837 0.6678-0.6837 0.6678-1.749 0-1.0812-0.6678-1.7649-0.6519-0.6837-1.6854-0.6837-1.0017 0-1.6536 0.6996-0.6519 0.6837-0.6519 1.749z"/>
        <path d="m507.53-18.216h1.1289v0.7155q0.2067-0.2385 0.3498-0.3975 0.159-0.159 0.318-0.2703 0.1908-0.1272 0.3975-0.159 0.2067-0.0477 0.4929-0.0477 0.0954 0 0.1749 0.0159 0.0954 0 0.1749 0.0159 0.1272 0.0159 0.2703 0.0795 0.1431 0.0477 0.3339 0.159l-0.5406 1.0335q-0.1113-0.0795-0.2067-0.1272t-0.1749-0.0636q-0.0636-0.0159-0.1431-0.0159-0.0636-0.0159-0.1431-0.0159-0.6837 0-1.0017 0.5247-0.3021 0.5088-0.3021 1.6695v3.4821h-1.1289v-6.5985z"/>
        <path d="m513.34-23.209v7.4253l2.4009-2.4327h1.5105l-2.8302 2.7984 3.3549 3.8001h-1.4787l-2.6712-3.0051-0.2862 0.2862v2.7189h-1.1289v-11.591h1.1289z"/>
        <path d="m522.55-17.183-0.9381 0.4929q-0.1749-0.3339-0.3975-0.4929t-0.5088-0.159q-0.3339 0-0.5724 0.2067t-0.2385 0.5088q0 0.3498 0.2862 0.5565t0.6996 0.3816q0.1272 0.0477 0.2544 0.1113 0.1431 0.0477 0.2862 0.1113 0.5724 0.2544 1.0494 0.6678t0.477 1.2243q0 0.9063-0.6519 1.5264-0.636 0.6042-1.5741 0.6042-0.8427 0-1.431-0.4134t-0.9063-1.2561l1.0017-0.4134q0.0477 0.0954 0.0954 0.1908 0.0477 0.0795 0.0795 0.159 0.2385 0.4134 0.4929 0.5724 0.2703 0.1431 0.6837 0.1431 0.4611 0 0.7632-0.3021t0.3021-0.7791q0-0.4293-0.3498-0.6678-0.3339-0.2385-0.795-0.4452-0.0954-0.0318-0.1908-0.0636-0.0795-0.0477-0.159-0.0795-0.5565-0.2544-1.0335-0.6201-0.4611-0.3816-0.4611-1.113 0-0.795 0.5565-1.3197 0.5724-0.5247 1.4151-0.5247 0.5724 0 1.0176 0.3021 0.4452 0.2862 0.7473 0.8904z"/>
      </g>
    </g>
  </g>
</svg>
